<?xml version="1.0" standalone="no"?>
<!DOCTYPE svg PUBLIC "-//W3C//DTD SVG 20010904//EN"
 "http://www.w3.org/TR/2001/REC-SVG-20010904/DTD/svg10.dtd">
<svg version="1.0" xmlns="http://www.w3.org/2000/svg"
 width="200.000000pt" height="200.000000pt" viewBox="0 0 200.000000 200.000000"
 preserveAspectRatio="xMidYMid meet">
<metadata>
Created by potrace 1.11, written by Peter Selinger 2001-2013
</metadata>
<g transform="translate(0.000000,200.000000) scale(0.100000,-0.100000)"
fill="#000000" stroke="none">
<path d="M891 1910 c-139 -64 -257 -238 -381 -564 -61 -162 -118 -380 -126
-483 -3 -43 -7 -89 -9 -101 -9 -56 18 -198 50 -267 53 -111 95 -149 211 -188
97 -33 191 -30 269 8 64 31 66 30 86 -37 8 -26 9 -52 2 -86 -11 -57 -2 -85 33
-101 51 -23 84 -7 109 52 31 74 8 212 -46 281 l-20 26 30 62 c65 137 95 305
96 528 0 158 -7 216 -40 313 -56 167 -137 249 -289 289 l-49 13 52 52 c90 90
140 92 223 5 55 -57 96 -125 138 -226 18 -42 39 -85 48 -96 37 -43 107 -30
125 24 8 23 2 45 -33 130 -24 55 -48 108 -55 116 -6 8 -23 35 -38 60 -36 62
-113 141 -169 174 -64 37 -155 44 -217 16z m-108 -395 c10 -7 40 -19 67 -25
83 -20 138 -90 176 -225 18 -65 27 -329 13 -395 -4 -19 -10 -53 -13 -75 -10
-67 -28 -138 -48 -184 -16 -39 -20 -42 -35 -30 -145 115 -187 136 -230 116
-27 -12 -47 -58 -38 -87 4 -12 44 -49 88 -82 45 -33 83 -64 85 -68 5 -13 -71
-31 -109 -26 -46 6 -109 33 -137 59 -44 41 -76 145 -75 247 1 136 40 322 109
515 40 111 114 275 123 275 3 0 14 -7 24 -15z"/>
<path d="M1430 992 c-99 -28 -168 -117 -153 -195 9 -50 31 -85 103 -172 78
-93 102 -136 98 -173 -4 -34 -24 -32 -82 10 -35 24 -50 29 -75 23 -37 -8 -61
-39 -61 -77 0 -22 12 -37 56 -71 61 -48 141 -74 198 -63 66 13 119 102 118
199 -1 58 -43 137 -127 238 -70 85 -88 124 -57 124 7 0 25 -22 40 -50 20 -37
35 -52 59 -59 40 -11 79 11 89 50 17 67 -78 200 -152 213 -22 4 -46 6 -54 3z"/>
</g>
</svg>
